<?xml version="1.0" encoding="UTF-8"?>
<svg xmlns="http://www.w3.org/2000/svg" viewBox="0 0 351.3 351.28">
  <defs>
    <style>
      .cls-1 {
        fill: none;
        stroke: #fcf9f4;
        stroke-miterlimit: 10;
        stroke-width: .75px;
      }

      .cls-2 {
        fill: #fcf9f4;
      }
    </style>
  </defs>
  <g id="fondo">
    <circle class="cls-1" cx="175.4" cy="175.64" r="174.97"/>
  </g>
  <g id="linea">
    <path class="cls-2" d="M251,176.86c-1.7,40.54-35.61,72.71-76.19,72.4-6.85-.05-13.49-1.01-19.79-2.78l-3.37,5.67c-.93,1.57-3.2,1.61-4.19.07l-7.56-11.78-9.69-15.11c-1.1-1.7.23-3.93,2.26-3.79l7.28.54,24.58,1.8c1.83.13,2.87,2.14,1.93,3.72l-2.95,4.96c3.74.77,7.61,1.18,11.56,1.21,32.68.28,59.91-26.04,60.68-58.72.8-34.18-26.91-62.09-61.02-61.62-33.07.46-59.39,28.02-59.31,61.09.03,12.12.44,14.09,6.4,24.82h0c2.4,3.97,3.97,8.15-.72,12.23h0c-3.24,2.44-9.48,1.3-11.51-2.24-6.37-11.11-9.7-22.16-9.67-35.88.08-41.37,33.88-75.29,75.25-75.51s77.83,35.52,76.01,78.92Z"/>
  </g>
</svg>