<?xml version="1.0" encoding="UTF-8"?>
<svg id="Capa_1" data-name="Capa 1" xmlns="http://www.w3.org/2000/svg" viewBox="0 0 341.33 541.88">
  <path d="M228.88,333.2l-42.08,60.95c-21.76-9.33-30.28-27.23-32.28-53.56l-37.1,53.25c-21.53-7.59-33.16-21.23-34.91-42.25l-11.22-134.66c-.59-7.11-7.23-13.36-15.03-19.15l13.57-25.06c18.59,4.23,30.28,18.94,31.89,38.18l10.8,129.12c.82,9.78,5.3,17.9,12.77,22.72l29.55-43.62.09-134.08c0-10.48-4.08-17.44-13.91-24.5l16.93-24.33,11.27,5.7c2.72,1.38,7.9-2.6,13.47-6.18l16.85,24.75c-8.55,6.74-13.62,12.91-13.62,21.52v161.07c0,6.74,4.22,14.3,9.26,18.62l35.15-50.95,5.97-102.33c1.11-18.97,12.43-33.54,30.35-38.07l14.93,23.9c-13.01,8.22-14.93,18.42-15.63,31.68l-8.72,163.5-30.69.87,2.35-57.09Z"/>
  <path d="M49.57,449.82l109.72,37.58c1.03,19.63,1.12,32.83-.19,54.21l-115.3-53.49C22.38,478.18-1.16,455.31.07,428.88c4.93-106.23,5.01-209.22-.02-315.49-1.35-28.5,24.57-50.81,47.33-61.41L159.05,0c1.38,20,1.29,34.83.24,54.31l-107.04,36.55c-17.77,6.07-29.91,20.18-29.9,39.95l.02,280.66c0,17.83,10.03,32.46,27.2,38.34Z"/>
  <path d="M180.54,488.12l108.84-37.53c17.24-5.94,29.55-19.52,29.54-39.2l-.1-283.51c0-15.78-12.57-31.03-26.54-35.79l-109.67-37.37c-2.11-18.38-2.23-33.79-.21-54.44l119.76,56.15c19.91,9.34,40.31,33.66,39.1,57.24-5.42,106.24-5.07,208.82-.12,314.88,1.21,25.9-21.63,49.23-42.79,59.1l-116.33,54.24-1.49-53.77Z"/>
</svg>